# This file uses centimeters as units for non-parametric coordinates.

mtllib kaart itch.mtl
g default
v 0.066907 1.262289 -0.727630
v 0.066907 1.327996 -0.683427
v 0.067446 1.262289 -0.683427
v 0.066907 0.013840 -0.683427
v 0.066907 0.079548 -0.727630
v 0.067446 0.079548 -0.683427
v 0.067446 1.262289 0.112209
v 0.066907 1.327996 0.112209
v 0.066907 1.262289 0.156411
v 0.067446 0.079548 0.112209
v 0.066907 0.079548 0.156411
v 0.066907 0.013840 0.112209
v 0.057200 1.262289 -0.727630
v 0.056660 1.262289 -0.683427
v 0.057200 1.327996 -0.683427
v 0.056660 0.079548 -0.683427
v 0.057200 0.079548 -0.727630
v 0.057200 0.013840 -0.683427
v 0.056660 1.262289 0.112209
v 0.057200 1.262289 0.156411
v 0.057200 1.327996 0.112209
v 0.057200 0.013840 0.112209
v 0.057200 0.079548 0.156411
v 0.056660 0.079548 0.112209
vt 0.021814 0.540073
vt 0.015876 0.540162
vt 0.008509 0.053437
vt 0.014447 0.053347
vt 0.965961 0.193025
vt 0.965961 0.806976
vt 0.552953 0.806976
vt 0.552953 0.193025
vt 0.047813 0.575446
vt 0.033804 0.031388
vt 0.027933 0.031477
vt 0.045427 0.031552
vt 0.041765 0.549329
vt 0.035651 0.549421
vt 0.028065 0.048236
vt 0.034180 0.048144
vt 0.489141 0.196508
vt 0.489141 0.803493
vt 0.080819 0.803493
vt 0.080819 0.196508
vt 0.041897 0.566089
vt 0.036026 0.566178
vt 0.511781 0.803433
vt 0.021964 0.557211
vt 0.489100 0.837147
vt 0.489100 0.162853
vt 0.049891 0.031533
vt 0.511781 0.196567
vt 0.016244 0.557297
vt 0.530052 0.806916
vt 0.552993 0.841017
vt 0.530052 0.193085
vt 0.008358 0.036299
vt 0.552993 0.158983
vt 0.988861 0.806916
vt 0.014079 0.036212
vt 0.965921 0.841017
vt 0.052276 0.575427
vt 0.965921 0.158983
vt 0.988861 0.193085
vt 0.080859 0.162853
vt 0.058179 0.196567
vt 0.058179 0.803433
vt 0.080859 0.837147
vt 0.051347 0.501627
vt 0.049609 0.105338
vt 0.046356 0.105353
vt 0.048095 0.501641
vn 0.000000 -1.000000 0.000000
vn 0.000000 -1.000000 0.000000
vn 0.000000 -1.000000 0.000000
vn 0.000000 -1.000000 0.000000
vn -1.000000 0.000000 0.000000
vn -1.000000 0.000000 0.000000
vn -1.000000 0.000000 0.000000
vn -1.000000 0.000000 0.000000
vn 0.000000 0.000000 1.000000
vn 0.000000 0.000000 1.000000
vn 0.000000 0.000000 1.000000
vn 0.000000 0.000000 1.000000
vn 0.000000 1.000000 0.000000
vn 0.000000 1.000000 0.000000
vn 0.000000 1.000000 0.000000
vn 0.000000 1.000000 0.000000
vn 1.000000 0.000000 0.000000
vn 1.000000 0.000000 0.000000
vn 1.000000 0.000000 0.000000
vn 1.000000 0.000000 0.000000
vn 0.999892 0.008200 -0.012200
vn 0.999892 0.008200 -0.012200
vn 0.999892 0.008200 -0.012200
vn 0.999892 -0.008200 -0.012200
vn 0.999892 -0.008200 -0.012200
vn 0.999892 -0.008200 -0.012200
vn 0.999892 0.008200 0.012200
vn 0.999892 0.008200 0.012200
vn 0.999892 0.008200 0.012200
vn 0.999892 -0.008200 0.012200
vn 0.999892 -0.008200 0.012200
vn 0.999892 -0.008200 0.012200
vn -0.999892 0.008200 -0.012200
vn -0.999892 0.008200 -0.012200
vn -0.999892 0.008200 -0.012200
vn -0.999892 -0.008200 -0.012200
vn -0.999892 -0.008200 -0.012200
vn -0.999892 -0.008200 -0.012200
vn -0.999892 0.008200 0.012200
vn -0.999892 0.008200 0.012200
vn -0.999892 0.008200 0.012200
vn -0.999892 -0.008200 0.012200
vn -0.999892 -0.008200 0.012200
vn -0.999892 -0.008200 0.012200
vn -0.999966 -0.008200 0.000000
vn -0.999966 -0.008200 0.000000
vn -0.999966 -0.008200 0.000000
vn -0.999966 -0.008200 0.000000
vn 0.000000 -0.558203 -0.829704
vn 0.000000 -0.558203 -0.829704
vn 0.000000 -0.558203 -0.829704
vn 0.000000 -0.558203 -0.829704
vn 0.999926 0.000000 -0.012200
vn 0.999926 0.000000 -0.012200
vn 0.999926 0.000000 -0.012200
vn 0.999926 0.000000 -0.012200
vn -0.999926 0.000000 0.012200
vn -0.999926 0.000000 0.012200
vn -0.999926 0.000000 0.012200
vn -0.999926 0.000000 0.012200
vn 0.999926 0.000000 0.012200
vn 0.999926 0.000000 0.012200
vn 0.999926 0.000000 0.012200
vn 0.999926 0.000000 0.012200
vn -0.999926 0.000000 -0.012200
vn -0.999926 0.000000 -0.012200
vn -0.999926 0.000000 -0.012200
vn -0.999926 0.000000 -0.012200
vn 0.000000 0.558203 0.829704
vn 0.000000 0.558203 0.829704
vn 0.000000 0.558203 0.829704
vn 0.000000 0.558203 0.829704
vn 0.999966 0.008200 0.000000
vn 0.999966 0.008200 0.000000
vn 0.999966 0.008200 0.000000
vn 0.999966 0.008200 0.000000
vn 0.000000 -0.558203 0.829704
vn 0.000000 -0.558203 0.829704
vn 0.000000 -0.558203 0.829704
vn 0.000000 -0.558203 0.829704
vn -0.999966 0.008200 0.000000
vn -0.999966 0.008200 0.000000
vn -0.999966 0.008200 0.000000
vn -0.999966 0.008200 0.000000
vn 0.000000 0.558203 -0.829704
vn 0.000000 0.558203 -0.829704
vn 0.000000 0.558203 -0.829704
vn 0.000000 0.558203 -0.829704
vn 0.999966 -0.008200 0.000000
vn 0.999966 -0.008200 0.000000
vn 0.999966 -0.008200 0.000000
vn 0.999966 -0.008200 0.000000
vn 0.000000 0.000000 -1.000000
vn 0.000000 0.000000 -1.000000
vn 0.000000 0.000000 -1.000000
vn 0.000000 0.000000 -1.000000
s off
g initialShadingGroup Mesh
usemtl blinn1SG
f 18/1/1 4/2/2 12/3/3 22/4/4
f 24/5/5 19/6/6 14/7/7 16/8/8
f 11/9/9 9/12/10 20/27/11 23/38/12
f 2/13/13 15/14/14 21/15/15 8/16/16
g Mesh
f 6/17/17 3/18/18 7/19/19 10/20/20
f 1/23/21 2/25/22 3/18/23
f 4/26/24 5/28/25 6/17/26
f 7/19/27 8/44/28 9/43/29
f 10/20/30 11/42/31 12/41/32
g initialShadingGroup Mesh
f 13/30/33 14/7/34 15/31/35
f 16/8/36 17/32/37 18/34/38
f 19/6/39 20/35/40 21/37/41
f 22/39/42 23/40/43 24/5/44
f 18/34/45 22/39/46 24/5/47 16/8/48
f 4/2/49 18/1/50 17/24/51 5/29/52
g Mesh
f 3/18/53 6/17/54 5/28/55 1/23/56
g initialShadingGroup Mesh
f 23/40/57 20/35/58 19/6/59 24/5/60
g Mesh
f 9/43/61 11/42/62 10/20/63 7/19/64
g initialShadingGroup Mesh
f 13/30/65 17/32/66 16/8/67 14/7/68
f 8/16/69 21/15/70 20/11/71 9/10/72
g Mesh
f 2/25/73 8/44/74 7/19/75 3/18/76
g initialShadingGroup Mesh
f 22/4/77 12/3/78 11/33/79 23/36/80
f 21/37/81 15/31/82 14/7/83 19/6/84
f 15/14/85 2/13/86 1/21/87 13/22/88
g Mesh
f 12/41/89 4/26/90 6/17/91 10/20/92
g initialShadingGroup Mesh
f 17/45/93 13/46/94 1/47/95 5/48/96
